PathFileType	4	(X/Y/Z)	E:\Qualisys_Data\Carbon_Farble_Plate\Data\Amateur_Runner\S14\T2\S14T2V22_c3d.trc
DataRate	CameraRate	NumFrames	NumMarkers	Units	OrigDataRate	OrigDataStartFrame	OrigNumFrames
200.000000	200.000000	5	39	mm	200.000000	197	316
Frame#	Time	LSHO			RSHO			LICST			RICST			LASIS			LHEEL			RASIS			LTROC			RTROC			SACR			LTH1			LSK4			LTH2			LTH3			RHM5			LSK2			LTH4			RTH1			LTOE			RTH2			RTH3			RTH4			LLEP			RLEP			LSK1			LSK3			RSK1			LHM5			RSK2			LFT1			RSK3			RSK4			LLME			RLME			RTOE			RHEEL			RFT1			RFT2			LFT2			
		X1	Y1	Z1	X2	Y2	Z2	X3	Y3	Z3	X4	Y4	Z4	X5	Y5	Z5	X6	Y6	Z6	X7	Y7	Z7	X8	Y8	Z8	X9	Y9	Z9	X10	Y10	Z10	X11	Y11	Z11	X12	Y12	Z12	X13	Y13	Z13	X14	Y14	Z14	X15	Y15	Z15	X16	Y16	Z16	X17	Y17	Z17	X18	Y18	Z18	X19	Y19	Z19	X20	Y20	Z20	X21	Y21	Z21	X22	Y22	Z22	X23	Y23	Z23	X24	Y24	Z24	X25	Y25	Z25	X26	Y26	Z26	X27	Y27	Z27	X28	Y28	Z28	X29	Y29	Z29	X30	Y30	Z30	X31	Y31	Z31	X32	Y32	Z32	X33	Y33	Z33	X34	Y34	Z34	X35	Y35	Z35	X36	Y36	Z36	X37	Y37	Z37	X38	Y38	Z38	X39	Y39	Z39	

198	0.985	671.85595703125	1405.218872070312	-478.5698852539062	738.7691650390625	1384.7353515625	-182.7192840576172	651.006103515625	948.2352294921876	-473.9573364257812	686.2096557617188	948.1145629882812	-197.2570495605469	698.5416870117188	899.649169921875	-452.3262023925781	493.4084167480469	385.6544494628906	-370.9616394042969	710.3894653320312	905.1467895507812	-216.6833190917969	582.0028686523438	826.5341796875	-498.23291015625	563.8368530273438	832.5415649414062	-164.9506683349609	528.9292602539062	947.4928588867188	-336.2159729003906	786.9808349609375	678.20556640625	-504.7229614257812	674.119140625	469.9709777832031	-459.8663635253906	730.98974609375	627.834716796875	-481.8701171875	859.0993041992188	609.7696533203125	-487.1307067871094	397.0795288085938	59.22531127929688	-198.9938201904297	757.1366577148438	519.3927001953125	-482.6002502441406	798.4400634765625	559.6607666015625	-467.1502990722656	666.3566284179688	601.9378051757812	-173.5325622558594	630.8604125976562	166.2945098876953	-388.79248046875	590.0341796875	615.6294555664062	-165.3964080810547	651.7401123046875	506.5625	-206.2741394042969	570.3834838867188	518.3186645507812	-189.4609222412109	846.9523315429688	536.8848266601562	-482.4754333496094	577.7376708984375	443.2583312988281	-199.4755706787109	802.2068481445312	452.0768432617188	-470.3620300292969	715.7112426757812	401.0646667480469	-449.1038208007812	533.5422973632812	327.5744323730469	-201.2088928222656	578.823486328125	210.6043701171875	-453.500732421875	465.4101257324219	378.0740661621094	-191.4740905761719	474.6289367675781	361.6875610351562	-349.6932678222656	464.3021545410156	251.3875122070312	-218.8917541503906	406.4028930664062	303.788818359375	-206.1628112792969	550.6963500976562	351.4810485839844	-432.1872863769531	314.3245849609375	155.1244049072266	-231.9707336425781	471.6266784667969	49.10607528686523	-262.8926696777344	242.1860809326172	146.9874725341797	-288.4143676757812	249.4653625488281	112.2539367675781	-313.0729370117188	233.1885528564453	122.8789749145508	-262.0421752929688	469.8644104003906	365.255859375	-405.1802673339844
199	0.99	690.35009765625	1409.666625976562	-479.1499328613281	761.1742553710938	1389.255737304688	-184.7797241210938	675.1093139648438	952.9024658203124	-473.4454650878906	709.70947265625	951.1754150390624	-198.3315887451172	720.6746826171875	903.5926513671876	-452.6910400390625	526.965576171875	373.2497253417969	-372.0370178222656	733.533203125	908.2346801757812	-217.5233306884766	606.0028076171875	831.920166015625	-499.7942810058594	586.2979125976562	836.5405883789062	-164.9795379638672	551.5599975585938	951.4714965820312	-336.3974304199219	812.8222045898438	684.5875854492188	-504.1153869628906	704.098876953125	466.6236877441406	-460.2259826660156	757.0479125976562	633.497314453125	-483.2965393066406	885.31884765625	617.164306640625	-486.3942565917969	398.3010864257812	60.62262344360352	-197.5295715332031	784.6533203125	520.365478515625	-482.2221374511719	825.0536499023438	566.093017578125	-467.9421691894531	682.9744262695312	604.9928588867188	-174.9031982421875	676.892822265625	161.8624572753906	-389.1974487304688	607.0405883789062	620.4989624023438	-165.4727325439453	665.509765625	510.0516967773438	-206.541015625	583.8851928710938	523.542724609375	-189.0018768310547	874.2825317382812	542.9071655273438	-481.8031616210938	589.3359375	447.595703125	-199.4663848876953	833.5933837890625	454.71630859375	-470.5887451171875	749.2418212890625	400.1734924316406	-450.3368530273438	542.56396484375	332.9304809570312	-200.2562713623047	622.3421630859375	202.8848114013672	-453.7036743164062	475.1004028320312	384.6954956054688	-190.8293762207031	508.9603881835938	348.6407470703125	-350.9441223144531	472.1376037597656	257.5543518066406	-217.7516937255859	415.128173828125	310.9576416015625	-205.0512390136719	586.3757934570312	342.1393737792969	-432.9261474609375	321.8328552246094	161.8306427001953	-231.0564880371094	473.0377197265625	49.28669357299805	-261.7434387207031	249.5501251220703	156.75537109375	-287.1213684082031	254.9554748535156	123.533073425293	-312.9835815429688	240.3519897460938	132.3133392333984	-260.3467712402344	504.3659057617188	351.3938293457031	-406.0855407714844
200	0.995	708.9395751953125	1414.127563476562	-479.0410461425781	783.5361328125	1394.076416015625	-186.4731903076172	699.621337890625	957.5277099609376	-473.1691284179688	733.1632690429688	954.718994140625	-199.0233612060547	743.48388671875	908.5194702148438	-453.0180969238281	560.9658813476562	360.1924438476562	-372.718505859375	756.69921875	911.4390258789062	-218.3568115234375	630.4254150390625	837.7326049804688	-501.375	608.3355102539062	840.2551879882812	-165.1507568359375	574.9730224609375	955.1619262695312	-336.9206848144531	838.5326538085938	690.8424682617188	-503.802001953125	734.3939819335938	463.0331115722656	-459.9143676757812	783.067138671875	639.0089721679688	-484.7355651855469	911.1517944335938	623.9734497070312	-485.8379516601562	401.523193359375	60.77065658569336	-197.2401428222656	811.9827270507812	520.5359497070312	-481.4093933105469	851.4898071289062	572.1800537109375	-468.1020812988281	699.345458984375	608.0391845703125	-175.9744262695312	723.019775390625	158.0607757568359	-389.4397583007812	624.2024536132812	624.8952026367188	-166.219482421875	679.0590209960938	513.7770385742188	-206.9096221923828	598.3235473632812	528.8968505859375	-188.5841827392578	901.0222778320312	548.5675048828125	-482.1883239746094	601.3748168945312	453.0362243652344	-198.3768310546875	863.8104248046875	457.3476867675781	-469.8912963867188	781.9302368164062	398.666748046875	-449.647705078125	552.1549072265625	338.6130981445312	-199.0994262695312	666.1591186523438	195.5131530761719	-454.2803344726562	485.3464050292969	391.6000061035156	-190.0266418457031	544.4899291992188	334.1272277832031	-351.5570983886719	481.3962097167969	264.0727844238281	-215.9591979980469	424.6006164550781	318.1861267089844	-204.1286773681641	622.494384765625	331.7132568359375	-432.6615295410156	329.8215942382812	168.7308197021484	-229.6230316162109	474.98583984375	48.64388275146484	-260.9192199707031	258.2875061035156	166.5616607666016	-285.5086669921875	262.8209228515625	133.7411346435547	-311.4437255859375	248.1464538574219	142.0989990234375	-259.3240966796875	539.0623168945312	337.5867614746094	-407.3346862792969
201	1.0	727.9616088867188	1418.732055664062	-479.1624145507812	805.4454956054688	1398.561767578125	-188.7693634033203	721.384765625	962.2691650390624	-473.9816589355469	756.8302612304688	958.1541137695312	-199.6401672363281	766.5146484375	913.4119873046876	-453.0786743164062	595.3905029296875	347.5170593261719	-373.1914978027344	780.4966430664062	914.272705078125	-219.6751098632812	654.472900390625	843.1885986328125	-502.9754943847656	631.2136840820312	843.9560546875	-165.1774139404297	597.7860107421875	958.9804077148438	-337.1241760253906	863.4795532226562	696.6783447265625	-503.352783203125	764.1513671875	459.5928039550781	-460.0731506347656	808.2434692382812	644.2300415039062	-485.74169921875	936.4750366210938	630.0872802734375	-485.41357421875	404.9645385742188	62.27393341064453	-196.0270538330078	839.4517822265625	520.8154907226562	-481.314208984375	877.0978393554688	578.3381958007812	-469.048583984375	715.9918823242188	611.3743286132812	-176.8630523681641	768.9300537109375	154.4482879638672	-390.3456115722656	641.427490234375	629.9822998046875	-166.5203247070312	693.333984375	517.6473388671875	-207.2522430419922	613.2405395507812	534.7760009765625	-187.9033660888672	927.934814453125	553.4398193359375	-481.7847900390625	613.79248046875	458.3568420410156	-197.9658813476562	893.7960815429688	460.1623840332031	-469.8032836914062	815.4708862304688	397.1498107910156	-450.6130065917969	562.1303100585938	344.9263916015625	-197.7684020996094	709.868408203125	188.6939086914062	-454.6092224121094	495.8230895996094	398.4435424804688	-189.1890258789062	581.1376953125	320.2903442382812	-352.0780639648438	490.8863220214844	270.7947692871094	-213.9214935302734	434.6567687988281	325.8460693359375	-203.1682281494141	658.7464599609375	323.0685424804688	-433.7739868164062	339.3291320800781	175.6926116943359	-227.9557189941406	477.4147644042969	47.93367767333984	-259.8749694824219	268.1964111328125	176.6540679931641	-283.9862060546875	271.5122375488281	144.1605987548828	-310.4510192871094	257.1363525390625	152.6890411376953	-257.82373046875	576.2105102539062	322.8550720214844	-407.0444030761719
202	1.005	746.7506713867188	1423.101684570312	-479.4850158691406	827.4494018554688	1403.171997070312	-190.3146514892578	743.8233032226562	966.9878540039062	-474.8728637695312	780.5322265625	961.3046875	-200.8758087158203	789.6129150390625	918.0460205078124	-453.9453735351562	630.7197265625	334.4228210449219	-373.9864807128906	803.8585815429688	918.0546264648438	-220.1915435791016	678.5773315429688	848.5027465820312	-504.5414733886719	653.6317749023438	848.2040405273438	-165.0502624511719	621.1520385742188	962.3995361328124	-337.3594360351562	888.6356201171875	702.1797485351562	-503.2459411621094	794.9635009765625	455.7716064453125	-460.4635620117188	833.2166137695312	649.0360107421875	-487.3031616210938	961.3778076171876	635.5936889648438	-484.78759765625	408.8326110839844	63.89538192749023	-194.9991607666016	866.3743896484375	520.3974609375	-480.8695678710938	902.0610961914062	583.2053833007812	-469.2130737304688	732.918212890625	614.6175537109375	-177.4866790771484	814.31396484375	151.3992462158203	-390.9690551757812	658.194091796875	635.3616333007812	-165.4381713867188	707.6049194335938	521.9952392578125	-207.4097595214844	627.9375610351562	540.4408569335938	-187.8290863037109	953.9795532226562	557.6848754882812	-481.7001647949219	626.5640258789062	464.360107421875	-197.0128021240234	923.2410888671876	462.4176635742188	-470.2400207519531	848.18701171875	395.4099426269531	-450.5251770019531	573.0655517578125	351.3737487792969	-196.3459625244141	753.5975341796875	182.2715606689453	-455.5933227539062	506.97900390625	405.3971557617188	-188.9256896972656	617.5371704101562	306.4412841796875	-352.6517333984375	501.1196899414062	277.9311218261719	-211.4603271484375	445.3862915039062	333.0256958007812	-202.3285675048828	695.1644897460938	313.5338134765625	-434.2783203125	349.57421875	182.1681823730469	-226.5780181884766	480.1446533203125	46.98731994628906	-258.6885986328125	280.7113647460938	188.2211456298828	-282.9277648925781	280.0126037597656	155.9069366455078	-310.0316772460938	266.0199279785156	164.6590576171875	-256.7980651855469	612.8641357421875	308.6162414550781	-407.5057067871094
